<svg width="208" height="208" viewBox="0 0 208 208" fill="none" xmlns="http://www.w3.org/2000/svg">
<path fill-rule="evenodd" clip-rule="evenodd" d="M4.16 0C1.8625 0 0 1.86249 0 4.16V203.84C0 206.138 1.86249 208 4.16 208H203.84C206.138 208 208 206.138 208 203.84V4.16C208 1.8625 206.138 0 203.84 0H4.16ZM75.8069 170.553C84.6374 174.371 94.0611 176.28 104.078 176.28H104.275C114.029 176.28 123.255 174.503 131.953 170.948C140.784 167.261 148.626 161.995 155.48 155.149C161.806 148.829 166.748 141.654 170.307 133.623C173.378 126.829 175.354 119.716 176.235 112.284C176.525 109.832 174.551 107.752 172.079 107.752H112.33C109.956 107.752 108.032 109.674 108.032 112.045V129.476C108.032 131.977 106.78 133.228 104.275 133.228C103.356 133.228 102.537 132.978 101.818 132.477C101.605 132.329 101.419 132.143 101.271 131.93C100.77 131.212 100.519 130.394 100.519 129.476V78.5243C100.519 77.471 100.849 76.6152 101.508 75.9569C102.299 75.167 103.221 74.772 104.275 74.772C105.194 74.772 105.962 75.0715 106.58 75.6706C106.767 75.8513 106.951 76.0355 107.132 76.2219C107.732 76.8396 108.032 77.6071 108.032 78.5243V95.9546C108.032 98.3256 109.956 100.248 112.33 100.248H172.094C174.56 100.248 176.532 98.1769 176.254 95.7293C175.353 87.8165 173.239 80.37 169.912 73.3896C165.958 64.9635 160.686 57.7224 154.096 51.6661C147.637 45.4782 140.125 40.6069 131.558 37.0521C123.123 33.4974 114.029 31.72 104.275 31.72H104.078C94.3247 31.72 85.0328 33.5632 76.2023 37.2496C67.5035 40.8044 59.7273 46.0707 52.8738 53.0485C46.0202 59.8947 40.7483 67.7283 37.0579 76.5494C33.4993 85.2388 31.72 94.389 31.72 104C31.72 114.006 33.6311 123.419 37.4533 132.241C41.2754 140.93 46.4156 148.566 52.8738 155.149C59.4637 161.6 67.1081 166.735 75.8069 170.553Z" fill="#0066FF"/>
</svg>
